<mxfile host="app.diagrams.net" modified="2022-04-07T13:57:31.227Z" agent="5.0 (Windows NT 10.0; Win64; x64) AppleWebKit/537.36 (KHTML, like Gecko) Chrome/99.0.4844.84 Safari/537.36" etag="lIr4ZRTQKBiLuN-Kmtfu" version="17.4.1" type="github">
  <diagram id="lrVLMUsgkKiTWm8jqJAo" name="Page-1">
    <mxGraphModel dx="1422" dy="762" grid="1" gridSize="10" guides="1" tooltips="1" connect="1" arrows="1" fold="1" page="1" pageScale="1" pageWidth="827" pageHeight="1169" math="0" shadow="0">
      <root>
        <mxCell id="0" />
        <mxCell id="1" parent="0" />
        <mxCell id="D6RFrWLNemOB4H1L4NGh-35" value="" style="edgeStyle=orthogonalEdgeStyle;rounded=0;orthogonalLoop=1;jettySize=auto;html=1;" edge="1" parent="1" source="D6RFrWLNemOB4H1L4NGh-1" target="D6RFrWLNemOB4H1L4NGh-2">
          <mxGeometry relative="1" as="geometry" />
        </mxCell>
        <mxCell id="D6RFrWLNemOB4H1L4NGh-1" value="填写投保信息" style="rounded=1;whiteSpace=wrap;html=1;fillColor=#f5f5f5;fontColor=#333333;strokeColor=#666666;gradientColor=none;glass=0;shadow=0;sketch=1;" vertex="1" parent="1">
          <mxGeometry x="140" y="140" width="120" height="60" as="geometry" />
        </mxCell>
        <mxCell id="D6RFrWLNemOB4H1L4NGh-36" value="" style="edgeStyle=orthogonalEdgeStyle;rounded=0;orthogonalLoop=1;jettySize=auto;html=1;" edge="1" parent="1" source="D6RFrWLNemOB4H1L4NGh-2" target="D6RFrWLNemOB4H1L4NGh-3">
          <mxGeometry relative="1" as="geometry" />
        </mxCell>
        <mxCell id="D6RFrWLNemOB4H1L4NGh-2" value="确认健康告知" style="rounded=1;whiteSpace=wrap;html=1;fillColor=#f5f5f5;fontColor=#333333;strokeColor=#666666;gradientColor=none;glass=0;shadow=0;sketch=1;" vertex="1" parent="1">
          <mxGeometry x="140" y="250" width="120" height="60" as="geometry" />
        </mxCell>
        <mxCell id="D6RFrWLNemOB4H1L4NGh-37" value="" style="edgeStyle=orthogonalEdgeStyle;rounded=0;orthogonalLoop=1;jettySize=auto;html=1;" edge="1" parent="1" source="D6RFrWLNemOB4H1L4NGh-3" target="D6RFrWLNemOB4H1L4NGh-4">
          <mxGeometry relative="1" as="geometry" />
        </mxCell>
        <mxCell id="D6RFrWLNemOB4H1L4NGh-39" style="edgeStyle=orthogonalEdgeStyle;rounded=0;orthogonalLoop=1;jettySize=auto;html=1;entryX=0;entryY=0.75;entryDx=0;entryDy=0;" edge="1" parent="1" source="D6RFrWLNemOB4H1L4NGh-3" target="D6RFrWLNemOB4H1L4NGh-7">
          <mxGeometry relative="1" as="geometry" />
        </mxCell>
        <mxCell id="D6RFrWLNemOB4H1L4NGh-40" value="" style="edgeStyle=orthogonalEdgeStyle;rounded=0;orthogonalLoop=1;jettySize=auto;html=1;" edge="1" parent="1" source="D6RFrWLNemOB4H1L4NGh-3" target="D6RFrWLNemOB4H1L4NGh-4">
          <mxGeometry relative="1" as="geometry" />
        </mxCell>
        <mxCell id="D6RFrWLNemOB4H1L4NGh-3" value="是否符合" style="rhombus;whiteSpace=wrap;html=1;shadow=0;glass=0;sketch=1;fillColor=#f5f5f5;fontColor=#333333;strokeColor=#666666;" vertex="1" parent="1">
          <mxGeometry x="140" y="370" width="120" height="80" as="geometry" />
        </mxCell>
        <mxCell id="D6RFrWLNemOB4H1L4NGh-38" value="" style="edgeStyle=orthogonalEdgeStyle;rounded=0;orthogonalLoop=1;jettySize=auto;html=1;" edge="1" parent="1" source="D6RFrWLNemOB4H1L4NGh-4" target="D6RFrWLNemOB4H1L4NGh-5">
          <mxGeometry relative="1" as="geometry" />
        </mxCell>
        <mxCell id="D6RFrWLNemOB4H1L4NGh-4" value="继续投保" style="rounded=1;whiteSpace=wrap;html=1;fillColor=#f5f5f5;fontColor=#333333;strokeColor=#666666;gradientColor=none;glass=0;shadow=0;sketch=1;" vertex="1" parent="1">
          <mxGeometry x="140" y="500" width="120" height="60" as="geometry" />
        </mxCell>
        <mxCell id="D6RFrWLNemOB4H1L4NGh-5" value="投保完成" style="rounded=1;whiteSpace=wrap;html=1;fillColor=#f5f5f5;fontColor=#333333;strokeColor=#666666;gradientColor=none;glass=0;shadow=0;sketch=1;" vertex="1" parent="1">
          <mxGeometry x="140" y="630" width="120" height="60" as="geometry" />
        </mxCell>
        <mxCell id="D6RFrWLNemOB4H1L4NGh-6" value="" style="swimlane;startSize=0;shadow=0;glass=0;sketch=1;fillColor=#FFFFFF;gradientColor=none;" vertex="1" parent="1">
          <mxGeometry x="320" y="182" width="440" height="368" as="geometry" />
        </mxCell>
        <mxCell id="D6RFrWLNemOB4H1L4NGh-43" value="" style="edgeStyle=orthogonalEdgeStyle;rounded=0;orthogonalLoop=1;jettySize=auto;html=1;" edge="1" parent="D6RFrWLNemOB4H1L4NGh-6" source="D6RFrWLNemOB4H1L4NGh-7" target="D6RFrWLNemOB4H1L4NGh-10">
          <mxGeometry relative="1" as="geometry" />
        </mxCell>
        <mxCell id="D6RFrWLNemOB4H1L4NGh-7" value="智能核保提示" style="rounded=1;whiteSpace=wrap;html=1;fillColor=#f5f5f5;fontColor=#333333;strokeColor=#666666;gradientColor=none;glass=0;shadow=0;sketch=1;" vertex="1" parent="D6RFrWLNemOB4H1L4NGh-6">
          <mxGeometry x="51" y="28" width="120" height="60" as="geometry" />
        </mxCell>
        <mxCell id="D6RFrWLNemOB4H1L4NGh-44" value="" style="edgeStyle=orthogonalEdgeStyle;rounded=0;orthogonalLoop=1;jettySize=auto;html=1;" edge="1" parent="D6RFrWLNemOB4H1L4NGh-6" source="D6RFrWLNemOB4H1L4NGh-10" target="D6RFrWLNemOB4H1L4NGh-23">
          <mxGeometry relative="1" as="geometry" />
        </mxCell>
        <mxCell id="D6RFrWLNemOB4H1L4NGh-10" value="选择疾病" style="rounded=1;whiteSpace=wrap;html=1;fillColor=#f5f5f5;fontColor=#333333;strokeColor=#666666;gradientColor=none;glass=0;shadow=0;sketch=1;" vertex="1" parent="D6RFrWLNemOB4H1L4NGh-6">
          <mxGeometry x="51" y="138" width="120" height="60" as="geometry" />
        </mxCell>
        <mxCell id="D6RFrWLNemOB4H1L4NGh-45" style="edgeStyle=orthogonalEdgeStyle;rounded=0;orthogonalLoop=1;jettySize=auto;html=1;entryX=0;entryY=0.75;entryDx=0;entryDy=0;" edge="1" parent="D6RFrWLNemOB4H1L4NGh-6" source="D6RFrWLNemOB4H1L4NGh-23" target="D6RFrWLNemOB4H1L4NGh-28">
          <mxGeometry relative="1" as="geometry" />
        </mxCell>
        <mxCell id="D6RFrWLNemOB4H1L4NGh-23" value="回答问题" style="rounded=1;whiteSpace=wrap;html=1;fillColor=#f5f5f5;fontColor=#333333;strokeColor=#666666;gradientColor=none;glass=0;shadow=0;sketch=1;" vertex="1" parent="D6RFrWLNemOB4H1L4NGh-6">
          <mxGeometry x="51" y="248" width="120" height="60" as="geometry" />
        </mxCell>
        <mxCell id="D6RFrWLNemOB4H1L4NGh-46" value="" style="edgeStyle=orthogonalEdgeStyle;rounded=0;orthogonalLoop=1;jettySize=auto;html=1;" edge="1" parent="D6RFrWLNemOB4H1L4NGh-6" source="D6RFrWLNemOB4H1L4NGh-28" target="D6RFrWLNemOB4H1L4NGh-34">
          <mxGeometry relative="1" as="geometry" />
        </mxCell>
        <mxCell id="D6RFrWLNemOB4H1L4NGh-28" value="提交所有问题回答" style="rounded=1;whiteSpace=wrap;html=1;fillColor=#f5f5f5;fontColor=#333333;strokeColor=#666666;gradientColor=none;glass=0;shadow=0;sketch=1;" vertex="1" parent="D6RFrWLNemOB4H1L4NGh-6">
          <mxGeometry x="250" y="28" width="120" height="60" as="geometry" />
        </mxCell>
        <mxCell id="D6RFrWLNemOB4H1L4NGh-48" value="" style="edgeStyle=orthogonalEdgeStyle;rounded=0;orthogonalLoop=1;jettySize=auto;html=1;" edge="1" parent="D6RFrWLNemOB4H1L4NGh-6" source="D6RFrWLNemOB4H1L4NGh-34" target="D6RFrWLNemOB4H1L4NGh-47">
          <mxGeometry relative="1" as="geometry" />
        </mxCell>
        <mxCell id="D6RFrWLNemOB4H1L4NGh-34" value="核保结论" style="rounded=1;whiteSpace=wrap;html=1;fillColor=#f5f5f5;fontColor=#333333;strokeColor=#666666;gradientColor=none;glass=0;shadow=0;sketch=1;" vertex="1" parent="D6RFrWLNemOB4H1L4NGh-6">
          <mxGeometry x="250" y="138" width="120" height="60" as="geometry" />
        </mxCell>
        <mxCell id="D6RFrWLNemOB4H1L4NGh-47" value="是否可以投保？" style="rhombus;whiteSpace=wrap;html=1;shadow=0;glass=0;sketch=1;fillColor=#FFFFFF;gradientColor=none;" vertex="1" parent="D6RFrWLNemOB4H1L4NGh-6">
          <mxGeometry x="245" y="258" width="130" height="80" as="geometry" />
        </mxCell>
        <mxCell id="D6RFrWLNemOB4H1L4NGh-41" value="是" style="text;html=1;align=center;verticalAlign=middle;resizable=0;points=[];autosize=1;strokeColor=none;fillColor=none;" vertex="1" parent="1">
          <mxGeometry x="175" y="450" width="30" height="20" as="geometry" />
        </mxCell>
        <mxCell id="D6RFrWLNemOB4H1L4NGh-42" value="否" style="text;html=1;align=center;verticalAlign=middle;resizable=0;points=[];autosize=1;strokeColor=none;fillColor=none;" vertex="1" parent="1">
          <mxGeometry x="265" y="380" width="30" height="20" as="geometry" />
        </mxCell>
        <mxCell id="D6RFrWLNemOB4H1L4NGh-49" style="edgeStyle=orthogonalEdgeStyle;rounded=0;orthogonalLoop=1;jettySize=auto;html=1;" edge="1" parent="1" source="D6RFrWLNemOB4H1L4NGh-47" target="D6RFrWLNemOB4H1L4NGh-4">
          <mxGeometry relative="1" as="geometry">
            <Array as="points">
              <mxPoint x="630" y="530" />
            </Array>
          </mxGeometry>
        </mxCell>
        <mxCell id="D6RFrWLNemOB4H1L4NGh-50" value="是（核保结论为标体、加费、除外）" style="edgeLabel;html=1;align=center;verticalAlign=middle;resizable=0;points=[];" vertex="1" connectable="0" parent="D6RFrWLNemOB4H1L4NGh-49">
          <mxGeometry x="0.1368" y="-1" relative="1" as="geometry">
            <mxPoint as="offset" />
          </mxGeometry>
        </mxCell>
      </root>
    </mxGraphModel>
  </diagram>
</mxfile>
